:version 1.10
:name ASF
:units
  mass 1
  length 1
  angle deg
:documentation
  ASF file generated by Kaydara
:root
  axis xyz
  order  tx ty tz rx ry rz
  position 0 0 0
  orientation 0 0 0
:bonedata
  begin
    id 1
    name RightUpLegDummy
    direction -0.718183 -0.695806 0.00816078
    length 4.904
    axis 0 0 0 xyz
  end
  begin
    id 2
    name RightUpLeg
    direction 3.53373e-006 -0.995788 0.0916898
    length 17.4976
    axis -3.49089 -0.000906625 0.000286804 xyz
    dof rx ry rz
  end
  begin
    id 3
    name RightLeg
    direction 0.00371092 -0.995096 -0.0988419
    length 16.5821
    axis 3.68512 0.0193738 -0.131023 xyz
    dof rx ry rz
  end
  begin
    id 4
    name RightFoot
    direction 0.00079151 -0.46099 0.887405
    length 3.77069
    axis 4.81691e-005 -0.120479 -0.188788 xyz
    dof rx ry rz
  end
  begin
    id 5
    name RightToes
    direction 0 0 0
    length 0
    axis 0 0 0 xyz
    dof rx ry rz
  end
  begin
    id 6
    name SpineDummy
    direction 8.3039e-015 1 4.57515e-016
    length 4.6813
    axis 0 0 0 xyz
  end
  begin
    id 7
    name Spine
    direction -3.15643e-008 0.999988 0.00495137
    length 10.1015
    axis -0.001389 0.000121418 2.40972e-006 xyz
    dof rx ry rz
  end
  begin
    id 8
    name Spine1
    direction 0 0 0
    length 0
    axis -0.001389 0.000121451 1.30017e-006 xyz
    dof rx ry rz
  end
  begin
    id 9
    name HEadDummy
    direction -1.99912e-008 0.999999 0.00127422
    length 3.43865
    axis -0.001389 0.000121451 1.30017e-006 xyz
  end
  begin
    id 10
    name HEad
    direction 0 0 0
    length 0
    axis 0 0 0 xyz
    dof rx ry rz
  end
  begin
    id 11
    name LeftShoulder1Dummy
    direction 0.998891 -0.0402509 -0.0244456
    length 3.5433
    axis -0.001389 0.000121451 1.30017e-006 xyz
  end
  begin
    id 12
    name LeftShoulder1
    direction 0.99951 -0.000327763 0.0313091
    length 4.05031
    axis -0.001389 0.000121451 1.30017e-006 xyz
    dof rx ry rz
  end
  begin
    id 13
    name LeftArm
    direction 0.998561 -0.00100056 -0.0536182
    length 10.3537
    axis -23.1894 0.134784 0.967509 xyz
    dof rx ry rz
  end
  begin
    id 14
    name LeftForeArm
    direction 0.998903 0.00866432 0.046012
    length 8.70632
    axis -9.91835 -0.06569 -0.177794 xyz
    dof rx ry rz
  end
  begin
    id 15
    name LeftHand
    direction 0 0 0
    length 0
    axis 0 0 0 xyz
    dof rx ry rz
  end
  begin
    id 16
    name RightShoulderDummy
    direction -0.998891 -0.0402509 -0.0244414
    length 3.5433
    axis -0.001389 0.000121451 1.30017e-006 xyz
  end
  begin
    id 17
    name RightShoulder
    direction -0.99951 -0.000327807 0.0313133
    length 4.05031
    axis 0.215806 0.000203643 -0.0068026 xyz
    dof rx ry rz
  end
  begin
    id 18
    name RightArm
    direction -0.998573 -0.000999564 -0.053403
    length 10.3947
    axis -23.2009 -0.134239 -0.964101 xyz
    dof rx ry rz
  end
  begin
    id 19
    name RightForeArm
    direction -0.998898 0.00868028 0.0461306
    length 8.68355
    axis -9.92322 0.0658061 0.178868 xyz
    dof rx ry rz
  end
  begin
    id 20
    name RightHand
    direction 0 0 0
    length 0
    axis 0 0 0 xyz
    dof rx ry rz
  end
  begin
    id 21
    name LeftUpLegDummy
    direction 0.718183 -0.695806 0.00816078
    length 4.904
    axis 0 0 0 xyz
  end
  begin
    id 22
    name LeftUpLeg
    direction -6.81752e-006 -0.995793 0.0916337
    length 17.4976
    axis -3.48766 0.00143442 -0.000524262 xyz
    dof rx ry rz
  end
  begin
    id 23
    name LeftLeg
    direction -0.00601358 -0.995091 -0.0987824
    length 16.5821
    axis 3.68178 -0.00654042 -0.000285133 xyz
    dof rx ry rz
  end
  begin
    id 24
    name LeftFoot
    direction -0.00417578 -0.460984 0.887399
    length 3.77069
    axis 1.87233e-006 4.66016e-005 -8.6538e-006 xyz
    dof rx ry rz
  end
  begin
    id 25
    name LeftToes
    direction 0 0 0
    length 0
    axis 0 0 0 xyz
    dof rx ry rz
  end
:hierarchy
  begin
    root RightUpLegDummy SpineDummy LeftUpLegDummy
    RightUpLegDummy RightUpLeg
    RightUpLeg RightLeg
    RightLeg RightFoot
    RightFoot RightToes
    SpineDummy Spine
    Spine Spine1
    Spine1 HEadDummy LeftShoulder1Dummy RightShoulderDummy
    HEadDummy HEad
    LeftShoulder1Dummy LeftShoulder1
    LeftShoulder1 LeftArm
    LeftArm LeftForeArm
    LeftForeArm LeftHand
    RightShoulderDummy RightShoulder
    RightShoulder RightArm
    RightArm RightForeArm
    RightForeArm RightHand
    LeftUpLegDummy LeftUpLeg
    LeftUpLeg LeftLeg
    LeftLeg LeftFoot
    LeftFoot LeftToes
  end

:SAMPLES-PER-SECOND 30
:FULLY-SPECIFIED
:DEGREES
157
root  -76.1165 41.4676 0.413722 -171.836 -83.3139 168.162
RightUpLeg  -4.13179 -8.84135 -5.47621
RightLeg  8.65452 0.404771 3.81257
RightFoot  0.735432 0.326169 -3.03261
RightToes  0.000481921 0.542163 -0.142578
Spine  8.6843 1.42359 5.32767
Spine1  0.183993 1.69032 0.763633
HEad  -15.4417 7.51467 -2.03298
LeftShoulder1  2.9917 -5.66249 -26.4425
LeftArm  -24.6736 27.7579 -11.9182
LeftForeArm  12.7748 -16.4549 -1.61108
LeftHand  -0.25398 0.0180481 5.50724
RightShoulder  1.32373 1.86876 18.1392
RightArm  -32.4994 -8.94831 10.6177
RightForeArm  -39.9404 17.0674 5.3902
RightHand  -6.12639 17.1001 -31.3293
LeftUpLeg  -3.4121 10.7157 3.03369
LeftLeg  8.97353 15.3145 -0.7938
LeftFoot  -1.32884 -0.0576733 0.73886
LeftToes  1.06245e-005 4.65868e-005 -8.65515e-006
158
root  -76.5167 41.5124 0.274977 -167.361 -84.8743 163.783
RightUpLeg  -3.26307 -8.8878 -5.62876
RightLeg  8.60544 -1.00879 3.55306
RightFoot  -0.138995 0.289044 -2.95244
RightToes  0.000481921 0.542163 -0.142578
Spine  8.25554 1.63945 4.62342
Spine1  -0.387272 1.81813 1.06668
HEad  -14.8252 6.1383 -1.73694
LeftShoulder1  2.44188 -5.05385 -22.1776
LeftArm  -23.4541 27.3226 -6.10416
LeftForeArm  10.2997 -16.3236 -1.57519
LeftHand  -0.25398 0.0180481 5.50724
RightShoulder  0.863266 0.608594 14.0709
RightArm  -30.4539 -8.06661 5.56569
RightForeArm  -41.1868 12.3756 4.5026
RightHand  -5.17904 15.0089 -29.2544
LeftUpLeg  -2.45129 9.97225 3.42901
LeftLeg  7.8813 14.5591 -1.69362
LeftFoot  -1.63391 0.0741649 -0.74676
LeftToes  1.06245e-005 4.65868e-005 -8.65515e-006
159
root  -76.9088 41.5697 0.143135 -158.909 -86.289 155.649
RightUpLeg  -2.45404 -8.87175 -5.75798
RightLeg  8.11047 -2.34886 3.33312
RightFoot  -0.669326 0.23779 -2.59311
RightToes  0.000481921 0.542163 -0.142578
Spine  7.34337 1.69558 4.39422
Spine1  -0.909963 1.99531 0.134818
HEad  -13.3056 4.55495 -0.929159
LeftShoulder1  1.78638 -4.16208 -16.3448
LeftArm  -25.6734 26.6128 -2.17114
LeftForeArm  15.3847 -17.1832 -1.33679
LeftHand  -0.25398 0.0180481 5.50724
RightShoulder  0.578326 -0.210328 10.4338
RightArm  -28.5947 -8.25516 1.57999
RightForeArm  -39.5745 8.97147 3.87169
RightHand  -3.73566 11.9702 -25.0539
LeftUpLeg  -1.66671 8.31447 3.5682
LeftLeg  6.21709 14.4665 -2.72032
LeftFoot  -1.01538 0.0851293 -0.880508
LeftToes  1.06245e-005 4.65868e-005 -8.65515e-006
160
root  -77.2774 41.6249 0.0297669 -141.756 -87.6035 138.916
RightUpLeg  -1.71177 -8.83511 -5.77029
RightLeg  7.43621 -3.78598 3.20758
RightFoot  -0.97101 0.20166 -2.29361
RightToes  0.000481921 0.542163 -0.142578
Spine  6.49674 1.46718 4.85858
Spine1  -1.81822 2.14647 -2.24592
HEad  -11.3092 3.19644 0.552341
LeftShoulder1  0.960315 -2.78966 -7.93627
LeftArm  -27.007 25.8868 -1.5499
LeftForeArm  17.7757 -17.8583 -1.53393
LeftHand  -0.25398 0.0180481 5.50724
RightShoulder  0.484763 -0.469246 8.34464
RightArm  -26.4757 -9.00986 -2.55226
RightForeArm  -40.2012 7.15939 3.80225
RightHand  -2.33452 7.37138 -21.3353
LeftUpLeg  -1.26354 6.90488 3.47293
LeftLeg  5.12174 14.349 -2.99438
LeftFoot  -0.637 0.0379566 -0.362201
LeftToes  1.06245e-005 4.65868e-005 -8.65515e-006
161
root  -77.6127 41.6667 -0.0794503 -106.119 -88.4356 103.586
RightUpLeg  -0.952292 -8.83826 -5.75112
RightLeg  6.85877 -5.20691 3.19195
RightFoot  -1.34096 0.184639 -2.21347
RightToes  0.000481921 0.542163 -0.142578
Spine  5.77292 1.28687 4.80002
Spine1  -2.36063 2.12039 -3.48791
HEad  -9.99226 2.26586 1.37208
LeftShoulder1  0.513726 -1.48971 -1.18607
LeftArm  -23.8945 24.4613 -1.50436
LeftForeArm  9.89294 -17.6945 -2.3144
LeftHand  -0.25398 0.0180481 5.50724
RightShoulder  0.32474 -1.14203 5.98845
RightArm  -25.6674 -9.43045 -5.68191
RightForeArm  -40.4665 6.87639 3.78688
RightHand  -1.32955 2.76156 -19.1229
LeftUpLeg  -0.892666 5.98688 3.45048
LeftLeg  4.40086 13.9217 -2.99142
LeftFoot  -0.738048 0.0511474 -0.503575
LeftToes  1.06245e-005 4.65868e-005 -8.65515e-006
162
root  -77.916 41.6933 -0.195593 -67.1171 -88.3315 64.7009
RightUpLeg  -0.22673 -8.84767 -5.74428
RightLeg  6.51396 -6.22215 3.22122
RightFoot  -1.76315 0.178268 -2.2693
RightToes  0.000481921 0.542163 -0.142578
Spine  5.3033 0.603037 5.06468
Spine1  -2.55016 1.94494 -6.76613
HEad  -9.0818 2.20125 4.05667
LeftShoulder1  -0.0156973 1.25508 9.27742
LeftArm  -25.1245 23.9968 -4.58561
LeftForeArm  12.8063 -18.8953 -2.76479
LeftHand  -0.25398 0.0180481 5.50724
RightShoulder  0.472782 -0.634646 9.13716
RightArm  -26.7155 -8.70911 -11.369
RightForeArm  -37.7185 7.66013 3.3395
RightHand  -1.84357 4.98986 -20.7839
LeftUpLeg  -0.322882 5.38195 3.53143
LeftLeg  3.58461 13.3136 -3.14045
LeftFoot  -0.663797 0.0965262 -0.991946
LeftToes  1.06245e-005 4.65868e-005 -8.65515e-006
163
root  -78.1837 41.7107 -0.310711 -52.9199 -87.9631 50.5636
RightUpLeg  0.301588 -8.83499 -5.70602
RightLeg  6.37653 -6.75789 3.22915
RightFoot  -2.07975 0.173597 -2.31577
RightToes  0.000481921 0.542163 -0.142578
Spine  5.31713 0.565355 4.44644
Spine1  -3.44208 1.90314 -7.17343
HEad  -7.71938 1.78968 4.79435
LeftShoulder1  -0.0550587 1.87222 13.3949
LeftArm  -24.3907 22.92 -3.98763
LeftForeArm  12.4703 -19.151 -2.97394
LeftHand  -0.25398 0.0180481 5.50724
RightShoulder  0.437724 -0.569018 7.34676
RightArm  -26.2436 -9.07787 -13.2126
RightForeArm  -35.205 8.2657 3.4259
RightHand  -1.96872 5.54262 -21.0623
LeftUpLeg  0.228728 5.04135 3.57304
LeftLeg  2.91076 12.8862 -3.20563
LeftFoot  -0.374894 0.100607 -1.00608
LeftToes  1.06245e-005 4.65868e-005 -8.65515e-006
164
root  -78.4086 41.7255 -0.40775 -46.6461 -87.7019 44.4442
RightUpLeg  0.614243 -8.82149 -5.62405
RightLeg  6.24239 -7.13318 3.23553
RightFoot  -2.29799 0.163782 -2.26659
RightToes  0.000481921 0.542163 -0.142578
Spine  5.28368 0.501204 3.55626
Spine1  -4.13257 1.70705 -6.71567
HEad  -7.0775 1.67663 4.94301
LeftShoulder1  -0.0385265 2.80835 15.2513
LeftArm  -25.1711 21.3119 -3.87686
LeftForeArm  10.644 -19.5545 -3.2258
LeftHand  -0.25398 0.0180481 5.50724
RightShoulder  0.418738 -0.272711 5.17689
RightArm  -25.0904 -8.87372 -13.9876
RightForeArm  -33.7704 7.91164 3.68292
RightHand  -2.03804 5.97325 -20.9843
LeftUpLeg  0.518116 4.90886 3.60751
LeftLeg  2.6007 12.7243 -3.1344
LeftFoot  -0.309475 0.0877758 -0.779031
LeftToes  1.06245e-005 4.65868e-005 -8.65515e-006
165
root  -78.5966 41.7388 -0.477168 -40.9545 -87.4473 38.9784
RightUpLeg  0.887265 -8.81817 -5.55038
RightLeg  5.92724 -7.53146 3.29375
RightFoot  -2.48606 0.148574 -2.13531
RightToes  0.000481921 0.542163 -0.142578
Spine  5.60312 0.503409 2.96364
Spine1  -5.50328 1.5489 -6.24858
HEad  -5.72359 1.40047 4.72114
LeftShoulder1  -0.0682732 2.06988 15.3629
LeftArm  -26.2074 20.6419 -2.56423
LeftForeArm  13.0589 -19.6493 -3.09219
LeftHand  -0.25398 0.0180481 5.50724
RightShoulder  0.411841 0.224674 2.97036
RightArm  -24.7256 -9.28366 -13.8099
RightForeArm  -32.5279 7.95901 3.7415
RightHand  -2.21033 6.67719 -21.4307
LeftUpLeg  0.64424 4.93521 3.72094
LeftLeg  2.38381 12.4741 -3.17514
LeftFoot  -0.412304 0.0934956 -0.854706
LeftToes  1.06245e-005 4.65868e-005 -8.65515e-006
166
root  -78.7617 41.7478 -0.525897 -37.0143 -87.2219 35.2007
RightUpLeg  1.2275 -8.80174 -5.51149
RightLeg  5.53268 -7.85047 3.37181
RightFoot  -2.64185 0.134332 -2.00065
RightToes  0.000481921 0.542163 -0.142578
Spine  6.49234 0.705608 3.34296
Spine1  -7.59594 1.71434 -6.7484
HEad  -3.9815 0.444645 4.32396
LeftShoulder1  -0.162256 -0.773543 13.8457
LeftArm  -27.5729 20.9288 -0.266474
LeftForeArm  18.0202 -18.9584 -2.45325
LeftHand  -0.25398 0.0180481 5.50724
RightShoulder  0.30895 0.0796158 0.24239
RightArm  -24.2098 -10.3565 -12.1536
RightForeArm  -31.653 8.48058 3.92001
RightHand  -2.2851 6.99073 -21.5967
LeftUpLeg  0.815513 4.97832 3.82371
LeftLeg  2.09187 12.1138 -3.27819
LeftFoot  -0.386932 0.108396 -1.08215
LeftToes  1.06245e-005 4.65868e-005 -8.65515e-006
167
root  -78.9074 41.7506 -0.567511 -35.4277 -87.1007 33.6885
RightUpLeg  1.51216 -8.74356 -5.45439
RightLeg  5.31713 -8.04082 3.36901
RightFoot  -2.77845 0.125121 -1.92269
RightToes  0.000481921 0.542163 -0.142578
Spine  6.21848 0.681782 2.90015
Spine1  -7.17812 1.66204 -6.44286
HEad  -4.19825 0.193691 3.99928
LeftShoulder1  -0.112801 -0.795277 12.5624
LeftArm  -28.2898 20.0039 -0.815692
LeftForeArm  17.05 -18.4363 -2.22564
LeftHand  -0.25398 0.0180481 5.50724
RightShoulder  0.283403 -0.367926 0.711295
RightArm  -22.5082 -8.7799 -12.184
RightForeArm  -32.7701 7.5209 4.46412
RightHand  -2.34683 7.57282 -21.2067
LeftUpLeg  0.995466 4.89788 3.82211
LeftLeg  1.9525 12.0028 -3.19041
LeftFoot  -0.351181 0.113358 -1.15994
LeftToes  1.06245e-005 4.65868e-005 -8.65515e-006
168
root  -79.029 41.7493 -0.603424 -35.0266 -87.088 33.3768
RightUpLeg  1.6172 -8.64375 -5.33663
RightLeg  5.29495 -8.1816 3.27731
RightFoot  -2.9217 0.121421 -1.91464
RightToes  0.000481921 0.542163 -0.142578
Spine  5.65986 0.635382 2.40916
Spine1  -6.24498 1.6032 -6.03427
HEad  -4.71332 -0.00940513 3.81554
LeftShoulder1  -0.04546 -0.446323 10.9239
LeftArm  -26.4703 18.4042 -1.09616
LeftForeArm  18.0842 -16.6709 -1.61671
LeftHand  -0.25398 0.0180481 5.50724
RightShoulder  0.297985 -0.586778 2.05964
RightArm  -22.1875 -7.14254 -11.8392
RightForeArm  -32.7509 6.43111 4.57382
RightHand  -2.3815 7.89112 -21.0199
LeftUpLeg  1.03784 4.77969 3.80685
LeftLeg  2.07249 12.1364 -2.98952
LeftFoot  -0.516358 0.113211 -1.17701
LeftToes  1.06245e-005 4.65868e-005 -8.65515e-006
169
root  -79.1281 41.749 -0.624695 -34.4925 -87.138 32.9528
RightUpLeg  1.68615 -8.54043 -5.19943
RightLeg  5.21252 -8.3022 3.21412
RightFoot  -3.01758 0.122325 -1.95279
RightToes  0.000481921 0.542163 -0.142578
Spine  5.16498 0.612028 2.35273
Spine1  -5.39843 1.65279 -6.23504
HEad  -5.09443 -0.453553 3.93285
LeftShoulder1  0.0192294 -0.699527 9.10265
LeftArm  -23.1712 16.3408 -1.73747
LeftForeArm  17.2594 -13.0795 -1.00302
LeftHand  -0.25398 0.0180481 5.50724
RightShoulder  0.311483 -0.939811 4.25219
RightArm  -21.3839 -5.38847 -11.5906
RightForeArm  -32.1401 5.06272 4.76335
RightHand  -2.52082 8.56021 -21.1826
LeftUpLeg  1.01599 4.82164 3.89886
LeftLeg  2.2174 12.1269 -2.9397
LeftFoot  -0.716327 0.112759 -1.19795
LeftToes  1.06245e-005 4.65868e-005 -8.65515e-006
170
root  -79.2106 41.7488 -0.634232 -32.7448 -87.1796 31.2172
RightUpLeg  1.94133 -8.45488 -5.07717
RightLeg  4.93464 -8.42258 3.24384
RightFoot  -3.00847 0.123424 -1.98337
RightToes  0.000481921 0.542163 -0.142578
Spine  4.88313 0.451906 2.84832
Spine1  -4.74318 1.74102 -7.65636
HEad  -5.0063 -0.903379 4.73668
LeftShoulder1  0.0352976 -1.23519 8.75474
LeftArm  -19.3997 14.9471 -3.14105
LeftForeArm  18.1042 -9.31626 -1.27368
LeftHand  -0.25398 0.0180481 5.50724
RightShoulder  0.397895 -1.00318 8.37207
RightArm  -21.0101 -3.50889 -12.3642
RightForeArm  -30.5572 3.42017 4.7644
RightHand  -2.66423 9.02293 -21.6568
LeftUpLeg  1.11465 4.99141 4.0821
LeftLeg  2.23495 11.8913 -3.02588
LeftFoot  -0.743079 0.107373 -1.12975
LeftToes  1.06245e-005 4.65868e-005 -8.65515e-006
171
root  -79.278 41.7488 -0.647095 -29.1914 -87.1403 27.5736
RightUpLeg  2.32058 -8.34632 -4.91655
RightLeg  4.60619 -8.65715 3.27878
RightFoot  -2.95148 0.12199 -1.96779
RightToes  0.000481921 0.542163 -0.142578
Spine  4.64316 0.200932 3.04366
Spine1  -3.87594 1.70063 -8.67303
HEad  -5.13081 -1.00877 5.36659
LeftShoulder1  0.0381173 -1.09066 8.6868
LeftArm  -15.37 13.9904 -4.60368
LeftForeArm  20.1317 -7.06723 -2.36213
LeftHand  -0.25398 0.0180481 5.50724
RightShoulder  0.52858 -0.783917 12.402
RightArm  -18.4394 -1.77373 -13.2696
RightForeArm  -32.2286 1.79445 5.69311
RightHand  -2.76728 9.28074 -22.0795
LeftUpLeg  1.29014 5.14149 4.29389
LeftLeg  2.25335 11.6163 -3.05141
LeftFoot  -0.707524 0.106773 -1.10097
LeftToes  1.06245e-005 4.65868e-005 -8.65515e-006
